HIERARCHY
ROOT pelvis
{
	OFFSET 0.00 0.00 0.00
	CHANNELS 6 Xposition Yposition Zposition Xrotation Yrotation Zrotation
	JOINT lfemur
	{
		OFFSET 0.00000 3.26371 0.00000
		CHANNELS 3 Xrotation Yrotation Zrotation
		JOINT ltibia
		{
			OFFSET 0.00000 0.00000 -17.39272
			CHANNELS 3 Xrotation Yrotation Zrotation
			JOINT lfoot
			{
				OFFSET 0.00000 0.00000 -17.72520
				CHANNELS 3 Xrotation Yrotation Zrotation
				JOINT ltoes
				{
					OFFSET 4.21806 0.00000 0.00000
					CHANNELS 3 Xrotation Yrotation Zrotation
				}
			}
		}
	}
	JOINT rfemur
	{
		OFFSET 0.00000 -3.26371 0.00000
		CHANNELS 3 Xrotation Yrotation Zrotation
		JOINT rtibia
		{
			OFFSET 0.00000 0.00000 -17.39272
			CHANNELS 3 Xrotation Yrotation Zrotation
			JOINT rfoot
			{
				OFFSET 0.00000 0.00000 -17.72520
				CHANNELS 3 Xrotation Yrotation Zrotation
				JOINT rtoes
				{
					OFFSET 4.21806 0.00000 0.00000
					CHANNELS 3 Xrotation Yrotation Zrotation
				}
			}
		}
	}
	JOINT thorax
	{
		OFFSET -1.96850 0.00000 6.16593
		CHANNELS 6 Xposition Yposition Zposition Xrotation Yrotation Zrotation
		JOINT head
		{
			OFFSET 0.00000 0.00000 18.21355
			CHANNELS 6 Xposition Yposition Zposition Xrotation Yrotation Zrotation
		}
		JOINT lclavicle
		{
			OFFSET 0.00000 0.00000 15.13875
			CHANNELS 3 Xrotation Yrotation Zrotation
			JOINT lhumerus
			{
				OFFSET 0.00000 7.18963 -1.52650
				CHANNELS 3 Xrotation Yrotation Zrotation
				JOINT lradius
				{
					OFFSET 0.00000 0.00000 -10.12096
					CHANNELS 3 Xrotation Yrotation Zrotation
					JOINT lhand
					{
						OFFSET 0.00000 0.00000 -10.45726
						CHANNELS 3 Xrotation Yrotation Zrotation
					}
				}
			}
		}
		JOINT rclavicle
		{
			OFFSET 0.00000 0.00000 15.13875
			CHANNELS 3 Xrotation Yrotation Zrotation
			JOINT rhumerus
			{
				OFFSET 0.00000 -7.18963 -1.52650
				CHANNELS 3 Xrotation Yrotation Zrotation
				JOINT rradius
				{
					OFFSET 0.00000 0.00000 -10.12096
					CHANNELS 3 Xrotation Yrotation Zrotation
					JOINT rhand
					{
						OFFSET 0.00000 0.00000 -10.45726
						CHANNELS 3 Xrotation Yrotation Zrotation
					}
				}
			}
		}
	}
}
MOTION
Frames: 7
Frame Time: 0.008333
 -76.8589 -5.9904 36.8112 0.8755 -4.7599 -0.5073 7.7888 2.3088 -1.0597 -0.0000 18.6463 0.0000 0.0000 8.8987 -2.2687 0.0000 -42.0451 -0.0000 -11.7644 3.4715 -6.5406 -0.0000 19.1856 0.0000 -0.0000 7.3902 9.9581 0.0000 -37.8710 -0.0000 -80.0654 -5.9250 42.4697 -0.5216 4.1999 4.6708 -80.4510 -6.1594 61.0274 -0.0076 -0.1187 -1.1633 -19.9233 0.0000 -7.5713 32.4712 0.3401 -6.8275 0.0000 -27.8016 -46.6121 1.2539 2.6346 -0.0000 15.3433 -0.0000 0.6532 -33.7240 -2.7033 6.8875 -0.0000 -28.9442 25.5020 6.2567 -8.1141 0.0000
 -76.8671 -5.9953 36.8082 0.8958 -4.7775 -0.6309 7.7779 2.2955 -0.6273 -0.0000 18.6996 0.0000 0.0000 8.8657 -2.2344 0.0000 -41.9997 -0.0000 -11.8183 3.3975 -6.5892 -0.0000 19.2704 0.0000 0.0000 7.3891 10.0906 0.0000 -37.7731 -0.0000 -80.0626 -5.9266 42.4637 -0.5275 4.2185 4.6780 -80.4384 -6.1741 61.0218 0.0083 -0.1093 -0.9257 -19.9106 0.0000 -7.5344 32.4658 0.3418 -6.8759 0.0000 -27.9088 -46.4549 1.2471 2.7753 0.0000 15.3080 -0.0000 0.6518 -33.7252 -2.8080 7.0765 -0.0000 -28.7436 25.3034 6.2702 -7.9446 0.0000
 -76.8694 -5.9989 36.8033 0.9115 -4.7844 -0.7363 7.7874 2.2737 -0.0751 -0.0000 18.7614 0.0000 0.0000 8.8160 -2.3201 0.0000 -41.9211 -0.0000 -11.8903 3.3154 -6.7538 -0.0000 19.3891 0.0000 0.0000 7.3567 10.3374 0.0000 -37.6326 -0.0000 -80.0684 -5.9299 42.4622 -0.5281 4.2526 4.7272 -80.4321 -6.1843 61.0223 -0.0303 -0.0572 -0.9357 -19.9375 0.0000 -7.5537 32.4627 0.2742 -6.7376 0.0000 -27.8795 -46.4236 1.2336 2.7488 0.0000 15.3291 -0.0000 0.7131 -33.7737 -2.7946 7.0485 -0.0000 -28.6829 25.1946 6.3481 -7.8405 -0.0000
 -76.8775 -6.0059 36.7986 0.9230 -4.7851 -0.8298 7.7993 2.2537 0.4568 -0.0000 18.7906 0.0000 0.0000 8.7750 -2.3268 0.0000 -41.7954 -0.0000 -11.9419 3.2248 -6.8753 -0.0000 19.5030 0.0000 -0.0000 7.2741 10.5216 0.0000 -37.4121 -0.0000 -80.0696 -5.9337 42.4598 -0.5339 4.2659 4.7078 -80.4259 -6.1934 61.0191 0.0135 -0.0170 -0.7775 -19.9320 0.0000 -7.5457 32.4378 0.2749 -6.6355 0.0000 -27.9143 -46.3927 1.2642 2.7347 0.0000 15.3337 -0.0000 0.7031 -33.7351 -2.9123 6.8874 -0.0000 -28.4822 25.3742 6.5034 -8.0618 -0.0000
 -76.8799 -6.0098 36.7920 0.9333 -4.7827 -0.9297 7.8256 2.2280 1.1519 -0.0000 18.8355 0.0000 -0.0000 8.7140 -2.4514 0.0000 -41.7112 -0.0000 -12.0059 3.1340 -7.0288 -0.0000 19.6283 0.0000 -0.0000 7.2133 10.7663 0.0000 -37.1411 -0.0000 -80.0745 -5.9360 42.4553 -0.5315 4.2900 4.7277 -80.4241 -6.2048 61.0182 -0.0221 0.0337 -0.7224 -19.9206 0.0000 -7.5512 32.3942 0.2282 -6.5355 0.0000 -27.9388 -46.2539 1.2040 2.7750 0.0000 15.3094 -0.0000 0.7170 -33.7231 -2.9713 6.8634 -0.0000 -28.3547 25.3270 6.5545 -7.9539 -0.0000
 -76.8861 -6.0149 36.7870 0.9432 -4.7762 -1.0032 7.8503 2.2026 1.8106 -0.0000 18.8606 0.0000 0.0000 8.6538 -2.5271 0.0000 -41.6632 -0.0000 -12.0554 3.0530 -7.1759 -0.0000 19.7284 0.0000 0.0000 7.1404 10.9564 0.0000 -36.7645 -0.0000 -80.0758 -5.9355 42.4528 -0.5193 4.2997 4.7273 -80.4159 -6.2078 61.0181 -0.0395 0.0824 -0.8318 -19.9193 0.0000 -7.5501 32.3402 0.1855 -6.4560 0.0000 -27.9110 -46.2183 1.2385 2.7583 -0.0000 15.3280 -0.0000 0.7195 -33.7526 -3.0268 6.7563 -0.0000 -28.2238 25.3894 6.6134 -8.0242 -0.0000
 -76.8933 -6.0202 36.7810 0.9463 -4.7768 -1.0841 7.8896 2.1791 2.5205 -0.0000 18.8880 0.0000 0.0000 8.5812 -2.6280 0.0000 -41.5559 -0.0000 -12.0981 2.9630 -7.3093 -0.0000 19.8379 0.0000 -0.0000 7.0707 11.1525 0.0000 -36.3339 -0.0000 -80.0794 -5.9386 42.4479 -0.5150 4.3233 4.7145 -80.4088 -6.2179 61.0139 -0.0567 0.0815 -0.7796 -19.9075 0.0000 -7.5490 32.3055 0.1533 -6.3781 0.0000 -27.9293 -46.0996 1.1664 2.8638 -0.0000 15.3373 -0.0000 0.7752 -33.7702 -3.0351 6.6618 -0.0000 -28.1327 25.3680 6.5734 -8.0554 0.0000
